<svg width="33" height="35" viewBox="0 0 33 35" fill="none" xmlns="http://www.w3.org/2000/svg">
<path d="M25.0833 7.16667C27.0624 7.16667 28.6667 5.56235 28.6667 3.58333C28.6667 1.60431 27.0624 0 25.0833 0C23.1043 0 21.5 1.60431 21.5 3.58333C21.5 5.56235 23.1043 7.16667 25.0833 7.16667Z" fill="white"/>
<path d="M22.8921 16.0702C23.3034 16.6831 23.8934 17.1546 24.5819 17.4206C25.2704 17.6867 26.0241 17.7344 26.7406 17.5573L32.6818 16.072L31.8164 12.5962L25.8753 14.0815L23.4045 10.3781C22.8767 9.58719 22.0574 9.03716 21.1255 8.84801L14.2348 7.46842C13.4639 7.31372 12.6635 7.41711 11.9573 7.76263C11.251 8.10815 10.6782 8.67658 10.3272 9.38013L7.35658 15.3213L10.5619 16.9248L13.5325 10.9819L17.0567 11.6878L7.94425 26.8758H0V30.4591H7.94425C9.19483 30.4591 10.372 29.7926 11.017 28.7194L14.4534 22.9932L23.7145 24.8458L26.9682 34.6086L30.3652 33.4745L27.1133 23.7135C26.9126 23.1142 26.5575 22.5784 26.0838 22.1601C25.6101 21.7417 25.0345 21.4556 24.415 21.3305L18.9702 20.243L22.145 14.9504L22.8921 16.0702V16.0702Z" fill="white"/>
</svg>
