<svg width="47" height="42" viewBox="0 0 47 42" fill="none" xmlns="http://www.w3.org/2000/svg">
<path d="M43.2037 3.83612C40.7426 1.37502 37.4844 0.0298919 34.007 0.0298919C30.5296 0.0298919 27.2614 1.38499 24.8003 3.84608L23.5149 5.13143L22.2097 3.82615C19.7486 1.36506 16.4704 0 12.993 0C9.52558 0 6.25741 1.3551 3.80628 3.80622C1.34519 6.26732 -0.00990938 9.53549 5.45597e-05 13.0129C5.45597e-05 16.4903 1.36511 19.7485 3.82621 22.2096L22.5385 40.9219C22.7975 41.181 23.1463 41.3204 23.4851 41.3204C23.8238 41.3204 24.1726 41.1909 24.4316 40.9319L43.1838 22.2495C45.6449 19.7884 46.9999 16.5202 46.9999 13.0428C47.0099 9.56538 45.6648 6.29721 43.2037 3.83612ZM41.2906 20.3464L23.4851 38.0822L5.71935 20.3165C3.76642 18.3635 2.69032 15.7729 2.69032 13.0129C2.69032 10.2529 3.75646 7.66227 5.70939 5.7193C7.65236 3.77633 10.243 2.70023 12.993 2.70023C15.753 2.70023 18.3536 3.77633 20.3066 5.72926L22.5584 7.98111C23.0865 8.5092 23.9334 8.5092 24.4615 7.98111L26.6934 5.74919C28.6464 3.79626 31.247 2.72015 33.997 2.72015C36.7471 2.72015 39.3377 3.79626 41.2906 5.73923C43.2435 7.69216 44.3097 10.2828 44.3097 13.0428C44.3196 15.8028 43.2435 18.3934 41.2906 20.3464Z" fill="white"/>
</svg>
